{
    "asset" : {
        "generator" : "Khronos glTF Blender I/O v1.5.17",
        "version" : "2.0"
    },
    "scene" : 0,
    "scenes" : [
        {
            "name" : "Scene",
            "nodes" : [
                0,
                1,
                2,
                3,
                4,
                5,
                6,
                7,
                8,
                9,
                10
            ]
        }
    ],
    "nodes" : [
        {
            "name" : "Light",
            "rotation" : [
                0.16907575726509094,
                0.7558803558349609,
                -0.27217137813568115,
                0.570947527885437
            ],
            "translation" : [
                3.118185520172119,
                1.0551972389221191,
                -3.57358980178833
            ]
        },
        {
            "name" : "Camera",
            "rotation" : [
                0.09707573056221008,
                -0.7551082372665405,
                0.6381159424781799,
                0.11487361043691635
            ],
            "translation" : [
                -0.8986911177635193,
                0.5992493629455566,
                -2.8482398986816406
            ]
        },
        {
            "mesh" : 0,
            "name" : "\u041a\u0443\u0431",
            "scale" : [
                0.25,
                0.10000000149011612,
                0.10000000149011612
            ],
            "translation" : [
                0,
                0.09999999403953552,
                0
            ]
        },
        {
            "mesh" : 1,
            "name" : "red",
            "rotation" : [
                0,
                0.7071068286895752,
                -0.7071068286895752,
                -3.090862321641907e-08
            ],
            "translation" : [
                0.11530254781246185,
                0.04615342244505882,
                0.02565886452794075
            ]
        },
        {
            "mesh" : 2,
            "name" : "blue",
            "rotation" : [
                0,
                0.7071068286895752,
                -0.7071068286895752,
                -3.090862321641907e-08
            ],
            "translation" : [
                0.11530254781246185,
                0.04615342244505882,
                0.02565886452794075
            ]
        },
        {
            "mesh" : 3,
            "name" : "Curve"
        },
        {
            "mesh" : 4,
            "name" : "_x33_pattern_1_"
        },
        {
            "mesh" : 5,
            "name" : "\u041c_-_\u043a\u043e\u043d\u0442\u0443\u0440_1_"
        },
        {
            "mesh" : 6,
            "name" : "Curve.001"
        },
        {
            "mesh" : 7,
            "name" : "Curve.002"
        },
        {
            "mesh" : 8,
            "name" : "\u041a_-_\u043a\u043e\u043d\u0442\u0443\u0440_1_"
        }
    ],
    "materials" : [
        {
            "doubleSided" : true,
            "name" : "Material",
            "pbrMetallicRoughness" : {
                "baseColorFactor" : [
                    0.800000011920929,
                    0.800000011920929,
                    0.800000011920929,
                    1
                ],
                "metallicFactor" : 0,
                "roughnessFactor" : 0.4000000059604645
            }
        },
        {
            "doubleSided" : true,
            "name" : "\u041c\u0430\u0442\u0435\u0440\u0438\u0430\u043b",
            "pbrMetallicRoughness" : {
                "baseColorFactor" : [
                    40.46007537841797,
                    0.0027931409422308207,
                    0,
                    1
                ],
                "metallicFactor" : 0.6176470518112183,
                "roughnessFactor" : 0.4852941036224365
            }
        },
        {
            "doubleSided" : true,
            "name" : "\u041c\u0430\u0442\u0435\u0440\u0438\u0430\u043b.001",
            "pbrMetallicRoughness" : {
                "baseColorFactor" : [
                    0.00472108181566,
                    0.1649794727563858,
                    0.8000000715255737,
                    1
                ],
                "metallicFactor" : 0,
                "roughnessFactor" : 0.5
            }
        },
        {
            "doubleSided" : true,
            "name" : "SVGMat",
            "pbrMetallicRoughness" : {
                "baseColorFactor" : [
                    0,
                    0,
                    0,
                    1
                ],
                "metallicFactor" : 0,
                "roughnessFactor" : 0.4000000059604645
            }
        }
    ],
    "meshes" : [
        {
            "name" : "\u041a\u0443\u0431",
            "primitives" : [
                {
                    "attributes" : {
                        "POSITION" : 0,
                        "NORMAL" : 1,
                        "TEXCOORD_0" : 2
                    },
                    "indices" : 3,
                    "material" : 0
                }
            ]
        },
        {
            "name" : "red",
            "primitives" : [
                {
                    "attributes" : {
                        "POSITION" : 4,
                        "NORMAL" : 5,
                        "TEXCOORD_0" : 6
                    },
                    "indices" : 7,
                    "material" : 1
                }
            ]
        },
        {
            "name" : "blue",
            "primitives" : [
                {
                    "attributes" : {
                        "POSITION" : 8,
                        "NORMAL" : 9,
                        "TEXCOORD_0" : 10
                    },
                    "indices" : 11,
                    "material" : 2
                }
            ]
        },
        {
            "name" : "Curve",
            "primitives" : [
                {
                    "attributes" : {
                        "POSITION" : 12,
                        "NORMAL" : 13,
                        "TEXCOORD_0" : 14
                    },
                    "indices" : 15,
                    "material" : 3
                }
            ]
        },
        {
            "name" : "_x33_pattern_1_",
            "primitives" : [
                {
                    "attributes" : {
                        "POSITION" : 16,
                        "NORMAL" : 17,
                        "TEXCOORD_0" : 18
                    },
                    "indices" : 19,
                    "material" : 3
                }
            ]
        },
        {
            "name" : "\u041c_-_\u043a\u043e\u043d\u0442\u0443\u0440_1_",
            "primitives" : [
                {
                    "attributes" : {
                        "POSITION" : 20,
                        "NORMAL" : 21,
                        "TEXCOORD_0" : 22
                    },
                    "indices" : 23,
                    "material" : 3
                }
            ]
        },
        {
            "name" : "Curve.001",
            "primitives" : [
                {
                    "attributes" : {
                        "POSITION" : 24,
                        "NORMAL" : 25,
                        "TEXCOORD_0" : 26
                    },
                    "indices" : 27,
                    "material" : 3
                }
            ]
        },
        {
            "name" : "Curve.002",
            "primitives" : [
                {
                    "attributes" : {
                        "POSITION" : 28,
                        "NORMAL" : 29,
                        "TEXCOORD_0" : 30
                    },
                    "indices" : 31,
                    "material" : 3
                }
            ]
        },
        {
            "name" : "\u041a_-_\u043a\u043e\u043d\u0442\u0443\u0440_1_",
            "primitives" : [
                {
                    "attributes" : {
                        "POSITION" : 32,
                        "NORMAL" : 33,
                        "TEXCOORD_0" : 34
                    },
                    "indices" : 35,
                    "material" : 3
                }
            ]
        }
    ],
    "accessors" : [
        {
            "bufferView" : 0,
            "componentType" : 5126,
            "count" : 48,
            "max" : [
                0.6232044696807861,
                1,
                1
            ],
            "min" : [
                -0.6232044696807861,
                -1,
                0.2890845239162445
            ],
            "type" : "VEC3"
        },
        {
            "bufferView" : 1,
            "componentType" : 5126,
            "count" : 48,
            "type" : "VEC3"
        },
        {
            "bufferView" : 2,
            "componentType" : 5126,
            "count" : 48,
            "type" : "VEC2"
        },
        {
            "bufferView" : 3,
            "componentType" : 5123,
            "count" : 84,
            "type" : "SCALAR"
        },
        {
            "bufferView" : 4,
            "componentType" : 5126,
            "count" : 206,
            "max" : [
                0.2154274433851242,
                -0.001644369214773178,
                -0.024935221299529076
            ],
            "min" : [
                0.003409317694604397,
                -0.047515757381916046,
                -0.10610942542552948
            ],
            "type" : "VEC3"
        },
        {
            "bufferView" : 5,
            "componentType" : 5126,
            "count" : 206,
            "type" : "VEC3"
        },
        {
            "bufferView" : 6,
            "componentType" : 5126,
            "count" : 206,
            "type" : "VEC2"
        },
        {
            "bufferView" : 7,
            "componentType" : 5123,
            "count" : 327,
            "type" : "SCALAR"
        },
        {
            "bufferView" : 8,
            "componentType" : 5126,
            "count" : 138,
            "max" : [
                0.22395355999469757,
                -0.001644369214773178,
                -0.0024322920944541693
            ],
            "min" : [
                0.011910024099051952,
                -0.047515757381916046,
                -0.08358392119407654
            ],
            "type" : "VEC3"
        },
        {
            "bufferView" : 9,
            "componentType" : 5126,
            "count" : 138,
            "type" : "VEC3"
        },
        {
            "bufferView" : 10,
            "componentType" : 5126,
            "count" : 138,
            "type" : "VEC2"
        },
        {
            "bufferView" : 11,
            "componentType" : 5123,
            "count" : 228,
            "type" : "SCALAR"
        },
        {
            "bufferView" : 12,
            "componentType" : 5126,
            "count" : 4,
            "max" : [
                0.15018197894096375,
                0,
                -0.03989296406507492
            ],
            "min" : [
                0.06820885837078094,
                0,
                -0.06636882573366165
            ],
            "type" : "VEC3"
        },
        {
            "bufferView" : 13,
            "componentType" : 5126,
            "count" : 4,
            "type" : "VEC3"
        },
        {
            "bufferView" : 14,
            "componentType" : 5126,
            "count" : 4,
            "type" : "VEC2"
        },
        {
            "bufferView" : 15,
            "componentType" : 5123,
            "count" : 6,
            "type" : "SCALAR"
        },
        {
            "bufferView" : 16,
            "componentType" : 5126,
            "count" : 552,
            "max" : [
                0.17149583995342255,
                0,
                -0.06610564887523651
            ],
            "min" : [
                0.15625646710395813,
                0,
                -0.08678370714187622
            ],
            "type" : "VEC3"
        },
        {
            "bufferView" : 17,
            "componentType" : 5126,
            "count" : 552,
            "type" : "VEC3"
        },
        {
            "bufferView" : 18,
            "componentType" : 5126,
            "count" : 552,
            "type" : "VEC2"
        },
        {
            "bufferView" : 19,
            "componentType" : 5123,
            "count" : 1254,
            "type" : "SCALAR"
        },
        {
            "bufferView" : 20,
            "componentType" : 5126,
            "count" : 575,
            "max" : [
                0.11177922040224075,
                0,
                -0.0394994392991066
            ],
            "min" : [
                0.06941679865121841,
                0,
                -0.0658242404460907
            ],
            "type" : "VEC3"
        },
        {
            "bufferView" : 21,
            "componentType" : 5126,
            "count" : 575,
            "type" : "VEC3"
        },
        {
            "bufferView" : 22,
            "componentType" : 5126,
            "count" : 575,
            "type" : "VEC2"
        },
        {
            "bufferView" : 23,
            "componentType" : 5123,
            "count" : 1266,
            "type" : "SCALAR"
        },
        {
            "bufferView" : 24,
            "componentType" : 5126,
            "count" : 72,
            "max" : [
                0.10926175117492676,
                0,
                -0.03909442573785782
            ],
            "min" : [
                0.10535570979118347,
                0,
                -0.042999640107154846
            ],
            "type" : "VEC3"
        },
        {
            "bufferView" : 25,
            "componentType" : 5126,
            "count" : 72,
            "type" : "VEC3"
        },
        {
            "bufferView" : 26,
            "componentType" : 5126,
            "count" : 72,
            "type" : "VEC2"
        },
        {
            "bufferView" : 27,
            "componentType" : 5123,
            "count" : 138,
            "type" : "SCALAR"
        },
        {
            "bufferView" : 28,
            "componentType" : 5126,
            "count" : 63,
            "max" : [
                0.14552240073680878,
                0,
                -0.03909442573785782
            ],
            "min" : [
                0.1416163593530655,
                0,
                -0.042999640107154846
            ],
            "type" : "VEC3"
        },
        {
            "bufferView" : 29,
            "componentType" : 5126,
            "count" : 63,
            "type" : "VEC3"
        },
        {
            "bufferView" : 30,
            "componentType" : 5126,
            "count" : 63,
            "type" : "VEC2"
        },
        {
            "bufferView" : 31,
            "componentType" : 5123,
            "count" : 138,
            "type" : "SCALAR"
        },
        {
            "bufferView" : 32,
            "componentType" : 5126,
            "count" : 648,
            "max" : [
                0.1468968391418457,
                0,
                -0.039500750601291656
            ],
            "min" : [
                0.11250737309455872,
                0,
                -0.06583552807569504
            ],
            "type" : "VEC3"
        },
        {
            "bufferView" : 33,
            "componentType" : 5126,
            "count" : 648,
            "type" : "VEC3"
        },
        {
            "bufferView" : 34,
            "componentType" : 5126,
            "count" : 648,
            "type" : "VEC2"
        },
        {
            "bufferView" : 35,
            "componentType" : 5123,
            "count" : 1479,
            "type" : "SCALAR"
        }
    ],
    "bufferViews" : [
        {
            "buffer" : 0,
            "byteLength" : 576,
            "byteOffset" : 0
        },
        {
            "buffer" : 0,
            "byteLength" : 576,
            "byteOffset" : 576
        },
        {
            "buffer" : 0,
            "byteLength" : 384,
            "byteOffset" : 1152
        },
        {
            "buffer" : 0,
            "byteLength" : 168,
            "byteOffset" : 1536
        },
        {
            "buffer" : 0,
            "byteLength" : 2472,
            "byteOffset" : 1704
        },
        {
            "buffer" : 0,
            "byteLength" : 2472,
            "byteOffset" : 4176
        },
        {
            "buffer" : 0,
            "byteLength" : 1648,
            "byteOffset" : 6648
        },
        {
            "buffer" : 0,
            "byteLength" : 654,
            "byteOffset" : 8296
        },
        {
            "buffer" : 0,
            "byteLength" : 1656,
            "byteOffset" : 8952
        },
        {
            "buffer" : 0,
            "byteLength" : 1656,
            "byteOffset" : 10608
        },
        {
            "buffer" : 0,
            "byteLength" : 1104,
            "byteOffset" : 12264
        },
        {
            "buffer" : 0,
            "byteLength" : 456,
            "byteOffset" : 13368
        },
        {
            "buffer" : 0,
            "byteLength" : 48,
            "byteOffset" : 13824
        },
        {
            "buffer" : 0,
            "byteLength" : 48,
            "byteOffset" : 13872
        },
        {
            "buffer" : 0,
            "byteLength" : 32,
            "byteOffset" : 13920
        },
        {
            "buffer" : 0,
            "byteLength" : 12,
            "byteOffset" : 13952
        },
        {
            "buffer" : 0,
            "byteLength" : 6624,
            "byteOffset" : 13964
        },
        {
            "buffer" : 0,
            "byteLength" : 6624,
            "byteOffset" : 20588
        },
        {
            "buffer" : 0,
            "byteLength" : 4416,
            "byteOffset" : 27212
        },
        {
            "buffer" : 0,
            "byteLength" : 2508,
            "byteOffset" : 31628
        },
        {
            "buffer" : 0,
            "byteLength" : 6900,
            "byteOffset" : 34136
        },
        {
            "buffer" : 0,
            "byteLength" : 6900,
            "byteOffset" : 41036
        },
        {
            "buffer" : 0,
            "byteLength" : 4600,
            "byteOffset" : 47936
        },
        {
            "buffer" : 0,
            "byteLength" : 2532,
            "byteOffset" : 52536
        },
        {
            "buffer" : 0,
            "byteLength" : 864,
            "byteOffset" : 55068
        },
        {
            "buffer" : 0,
            "byteLength" : 864,
            "byteOffset" : 55932
        },
        {
            "buffer" : 0,
            "byteLength" : 576,
            "byteOffset" : 56796
        },
        {
            "buffer" : 0,
            "byteLength" : 276,
            "byteOffset" : 57372
        },
        {
            "buffer" : 0,
            "byteLength" : 756,
            "byteOffset" : 57648
        },
        {
            "buffer" : 0,
            "byteLength" : 756,
            "byteOffset" : 58404
        },
        {
            "buffer" : 0,
            "byteLength" : 504,
            "byteOffset" : 59160
        },
        {
            "buffer" : 0,
            "byteLength" : 276,
            "byteOffset" : 59664
        },
        {
            "buffer" : 0,
            "byteLength" : 7776,
            "byteOffset" : 59940
        },
        {
            "buffer" : 0,
            "byteLength" : 7776,
            "byteOffset" : 67716
        },
        {
            "buffer" : 0,
            "byteLength" : 5184,
            "byteOffset" : 75492
        },
        {
            "buffer" : 0,
            "byteLength" : 2958,
            "byteOffset" : 80676
        }
    ],
    "buffers" : [
        {
            "byteLength" : 83636,
            "uri" : "data:application/octet-stream;base64,"
        }
    ]
}
